<svg width="35" height="35" viewBox="0 0 35 35" fill="none" xmlns="http://www.w3.org/2000/svg">
<path d="M22.7194 21.5163C22.1516 20.6173 21.8582 19.5723 21.875 18.5091C21.8919 17.446 22.2183 16.4109 22.8143 15.5303C23.4104 14.6498 24.2501 13.9622 25.2309 13.5515C26.2117 13.1408 27.2909 13.025 28.3364 13.2181C29.382 13.4112 30.3486 13.905 31.118 14.6389C31.8873 15.3729 32.426 16.3151 32.6681 17.3505C32.9103 18.3858 32.8454 19.4693 32.4813 20.4683C32.1173 21.4673 31.4699 22.3385 30.6184 22.9753C33.2762 24.4409 35 27.2563 35 30.625V33.9062C35 34.1963 34.8848 34.4745 34.6796 34.6796C34.4745 34.8848 34.1963 35 33.9062 35C33.6162 35 33.338 34.8848 33.1329 34.6796C32.9277 34.4745 32.8125 34.1963 32.8125 33.9062V30.625C32.8125 26.8538 30.0212 24.0625 26.25 24.0625C24.2594 24.0625 23.4106 24.0188 22.3016 23.7956C19.5672 23.24 17.1981 21.6081 14.4594 18.1825C14.3616 18.0714 14.2874 17.9417 14.2412 17.8011C14.195 17.6605 14.1778 17.512 14.1907 17.3646C14.2035 17.2172 14.2462 17.0739 14.316 16.9435C14.3859 16.813 14.4815 16.6981 14.597 16.6056C14.7126 16.5132 14.8457 16.4452 14.9883 16.4057C15.1309 16.3662 15.28 16.356 15.4267 16.3758C15.5733 16.3956 15.7144 16.445 15.8414 16.5209C15.9684 16.5968 16.0787 16.6977 16.1656 16.8175C18.1344 19.2763 19.7816 20.6238 21.49 21.2866C21.8291 21.4003 22.2447 21.4681 22.7194 21.5163ZM26.6241 21.7962C26.8064 21.8181 26.9894 21.8429 27.1731 21.8706L27.3438 21.875C28.1825 21.8731 28.9887 21.5501 29.5967 20.9724C30.2048 20.3946 30.5685 19.6059 30.6131 18.7683C30.6577 17.9307 30.3799 17.1079 29.8367 16.4688C29.2935 15.8296 28.5261 15.4228 27.6923 15.3319C26.8585 15.2409 26.0215 15.4727 25.3533 15.9797C24.685 16.4866 24.2363 17.2302 24.0993 18.0577C23.9623 18.8852 24.1473 19.7338 24.6165 20.4291C25.0856 21.1244 25.8054 21.6136 26.6241 21.7962ZM21.3937 26.1844C21.6838 26.1844 21.962 26.2996 22.1671 26.5047C22.3723 26.7098 22.4875 26.988 22.4875 27.2781C22.4711 27.4503 22.4344 27.6199 22.3781 27.7834C21.9866 28.6147 21.875 29.4766 21.875 30.6316V33.9128C21.875 34.2029 21.7598 34.4811 21.5546 34.6862C21.3495 34.8913 21.0713 35.0066 20.7812 35.0066C20.4912 35.0066 20.213 34.8913 20.0079 34.6862C19.8027 34.4811 19.6875 34.2029 19.6875 33.9128V30.6316C19.6875 29.1944 19.845 28.0372 20.3591 26.9216C20.4333 26.7063 20.5729 26.5195 20.7584 26.3873C20.9439 26.2552 21.166 26.1842 21.3937 26.1844ZM13.0331 12.6262C13.2038 12.8534 13.2794 13.1382 13.2438 13.4201C13.2082 13.702 13.0643 13.959 12.8426 14.1367C12.6208 14.3144 12.3386 14.3988 12.0557 14.3721C11.7728 14.3453 11.5114 14.2095 11.3269 13.9934L6.80312 8.33875C6.70534 8.22769 6.63111 8.09794 6.58492 7.95735C6.53873 7.81677 6.52155 7.66828 6.53442 7.52086C6.54729 7.37345 6.58994 7.23017 6.65978 7.09972C6.72963 6.96926 6.82522 6.85434 6.94077 6.7619C7.05632 6.66946 7.18942 6.60143 7.33203 6.56192C7.47464 6.52241 7.62377 6.51226 7.77042 6.53206C7.91706 6.55187 8.05816 6.60123 8.18518 6.67715C8.3122 6.75306 8.42249 6.85397 8.50938 6.97375L13.0331 12.6262ZM2.1875 24.0625H14.2188C14.5088 24.0625 14.787 24.1777 14.9921 24.3829C15.1973 24.588 15.3125 24.8662 15.3125 25.1562C15.3125 25.4463 15.1973 25.7245 14.9921 25.9296C14.787 26.1348 14.5088 26.25 14.2188 26.25H1.09375C0.803669 26.25 0.52547 26.1348 0.320352 25.9296C0.115234 25.7245 0 25.4463 0 25.1562V1.09375C0 0.803669 0.115234 0.52547 0.320352 0.320352C0.52547 0.115234 0.803669 0 1.09375 0L27.3438 0C27.6338 0 27.912 0.115234 28.1171 0.320352C28.3223 0.52547 28.4375 0.803669 28.4375 1.09375V7.65625C28.4375 7.94633 28.3223 8.22453 28.1171 8.42965C27.912 8.63477 27.6338 8.75 27.3438 8.75C27.0537 8.75 26.7755 8.63477 26.5704 8.42965C26.3652 8.22453 26.25 7.94633 26.25 7.65625V2.1875H2.1875V24.0625Z" fill="#AAAAAA"/>
</svg>
