<svg width="157" height="100" viewBox="0 0 157 100" fill="none" xmlns="http://www.w3.org/2000/svg">
<g clip-path="url(#clip0_1_3573)">
<path d="M95.7995 2.28718L78.3126 12.7962L17.2269 49.3972L11.0876 53.1198L5.77025 56.3126L-0.426999 60.0031L8.87345 75.4993L20.3431 68.6289L56.5088 46.9109L56.5307 46.9192L80.2149 32.7196L80.1814 32.7049L98.9027 21.4739L105.1 17.7833L95.7995 2.28718ZM22.5641 51.6581L41.2848 40.4419L51.1806 44.6474L32.4973 55.8577L22.5641 51.6581ZM64.9535 26.2565L79.5494 17.5182L80.7207 16.8144L80.7252 16.8131L83.6575 15.05L93.5577 19.2201L74.8455 30.4485L64.9535 26.2565ZM137.858 116.878L118.37 49.3889L10.3866 80.5705L29.8751 148.06C30.5642 150.447 32.1732 152.462 34.3481 153.662C36.523 154.862 39.0856 155.149 41.4722 154.46L131.458 128.475C133.845 127.786 135.86 126.177 137.06 124.002C138.26 121.828 138.547 119.265 137.858 116.878ZM108.533 57.1038L103.117 72.0238L82.1953 78.0653L87.6115 63.1452L108.533 57.1038ZM40.1439 76.8521L61.1106 70.7977L55.6944 85.7178L34.7277 91.7722L40.1439 76.8521Z" fill="#845FE7"/>
</g>
<defs>
<clipPath id="clip0_1_3573">
<rect width="149.86" height="149.86" fill="white" transform="translate(-29 28.5757) rotate(-16.1068)"/>
</clipPath>
</defs>
</svg>
