<svg width="187" height="187" viewBox="0 0 187 187" fill="none" xmlns="http://www.w3.org/2000/svg">
<path d="M8.40039 8.76562V178.234H14.9746V141.309C70.5998 152.047 116.364 152.047 172.025 141.309V178.234H178.6V8.76562H172.025V14.6094H163.625V26.2969H172.025V37.9844H163.625V49.6719H172.025V134.625C116.035 145.546 70.965 145.546 14.9746 134.625V37.9844H23.375V26.2969H14.9746V8.76562H8.40039ZM23.375 26.2969H35.0625V14.6094H23.375V26.2969ZM35.0625 26.2969V37.9844H46.75V26.2969H35.0625ZM46.75 26.2969H58.4375V14.6094H46.75V26.2969ZM58.4375 26.2969V37.9844H70.125V26.2969H58.4375ZM70.125 26.2969H81.8125V14.6094H70.125V26.2969ZM81.8125 26.2969V37.9844H93.5V26.2969H81.8125ZM93.5 26.2969H105.188V14.6094H93.5V26.2969ZM105.188 26.2969V37.9844H116.875V26.2969H105.188ZM116.875 26.2969H128.562V14.6094H116.875V26.2969ZM128.562 26.2969V37.9844H140.25V26.2969H128.562ZM140.25 26.2969H151.938V14.6094H140.25V26.2969ZM151.938 26.2969V37.9844H163.625V26.2969H151.938ZM151.938 37.9844H140.25V49.6719H151.938V37.9844ZM128.562 37.9844H116.875V49.6719H128.562V37.9844ZM105.188 37.9844H93.5V49.6719H105.188V37.9844ZM81.8125 37.9844H70.125V49.6719H81.8125V37.9844ZM58.4375 37.9844H46.75V49.6719H58.4375V37.9844ZM35.0625 37.9844H23.375V49.6719H35.0625V37.9844Z" fill="#D7D7D7"/>
</svg>
