<svg width="133" height="133" viewBox="0 0 133 133" fill="none" xmlns="http://www.w3.org/2000/svg">
<path d="M28.4004 65.9562C64.1937 -0.747981 108.764 -1.51705 126.566 6.43468C134.517 24.2432 133.748 68.8067 67.0442 104.6C66.3527 100.621 62.5074 90.2065 52.6506 80.3497C42.7939 70.493 32.3798 66.6477 28.4004 65.9562Z" stroke="#9FBAF1" stroke-opacity="0.3" stroke-width="5" stroke-linecap="round" stroke-linejoin="round"/>
<path d="M76.0259 101.425C89.0013 107.775 90.3842 119.163 92.1834 130C92.1834 130 119.348 109.92 101.97 82.3743M31.5754 57.5173C25.2253 44.5419 13.8375 43.159 3 41.3598C3 41.3598 23.0874 14.1955 50.6256 31.5736M24.2939 87.0452C20.6814 90.6506 14.543 101.128 18.8752 114.125C31.8788 118.457 42.3493 112.319 45.9689 108.713M103.896 41.4515C103.896 38.1768 102.595 35.0362 100.279 32.7206C97.9637 30.405 94.8231 29.1041 91.5483 29.1041C88.2736 29.1041 85.133 30.405 82.8174 32.7206C80.5018 35.0362 79.201 38.1768 79.201 41.4515C79.201 44.7263 80.5018 47.8669 82.8174 50.1825C85.133 52.4981 88.2736 53.7989 91.5483 53.7989C94.8231 53.7989 97.9637 52.4981 100.279 50.1825C102.595 47.8669 103.896 44.7263 103.896 41.4515Z" stroke="#9FBAF1" stroke-opacity="0.3" stroke-width="5" stroke-linecap="round" stroke-linejoin="round"/>
</svg>
