<svg width="180" height="180" viewBox="0 0 180 180" fill="none" xmlns="http://www.w3.org/2000/svg">
<g filter="url(#filter0_f_343_6171)">
<path opacity="0.5" d="M82.0621 52.6901C82.9889 48.67 85.4747 45.1827 88.9727 42.9954C92.4708 40.8081 96.6944 40.1 100.715 41.0268C104.735 41.9536 108.222 44.4395 110.409 47.9375C112.596 51.4355 113.305 55.6592 112.378 59.6793L103.991 96.0581C103.064 100.078 100.578 103.566 97.0801 105.753C93.5821 107.94 89.3584 108.648 85.3383 107.721C81.3182 106.795 77.8309 104.309 75.6436 100.811C73.4563 97.3127 72.7482 93.0891 73.675 89.069L82.0621 52.6901Z" fill="#D7D7D7"/>
<path fill-rule="evenodd" clip-rule="evenodd" d="M77.5143 51.6417C78.7192 46.4156 81.9508 41.8821 86.4982 39.0386C91.0456 36.1951 96.5364 35.2746 101.763 36.4794C106.989 37.6843 111.522 40.9159 114.366 45.4633C117.209 50.0108 118.13 55.5015 116.925 60.7276L108.538 97.1065C107.333 102.333 104.101 106.866 99.5539 109.71C95.0065 112.553 89.5157 113.474 84.2896 112.269C79.0634 111.064 74.53 107.832 71.6865 103.285C68.843 98.7375 67.9224 93.2467 69.1273 88.0206L77.5143 51.6417ZM99.6658 45.5742C96.8517 44.9254 93.8951 45.4211 91.4465 46.9522C88.9979 48.4833 87.2578 50.9244 86.609 53.7385L78.222 90.1173C77.5732 92.9314 78.0689 95.888 79.6 98.3366C81.1311 100.785 83.5722 102.525 86.3863 103.174C89.2004 103.823 92.157 103.327 94.6056 101.796C97.0542 100.265 98.7943 97.8238 99.443 95.0098L107.83 58.6309C108.479 55.8168 107.983 52.8603 106.452 50.4116C104.921 47.963 102.48 46.2229 99.6658 45.5742ZM59.5652 81.027C60.7712 81.3051 61.8174 82.0508 62.4736 83.1002C63.1298 84.1496 63.3422 85.4167 63.0642 86.6228C61.4886 93.457 62.6924 100.637 66.4108 106.584C70.1291 112.53 76.0575 116.756 82.8917 118.332C89.7259 119.908 96.9061 118.704 102.853 114.985C108.799 111.267 113.025 105.339 114.601 98.5044C114.879 97.2983 115.625 96.2521 116.674 95.5959C117.724 94.9398 118.991 94.7273 120.197 95.0054C121.403 95.2834 122.449 96.0292 123.105 97.0786C123.761 98.128 123.974 99.3951 123.696 100.601C121.746 109.06 116.787 116.521 109.743 121.595C102.7 126.668 94.0517 129.008 85.4108 128.178L83.9445 134.538L97.5866 137.683C98.7926 137.961 99.8388 138.707 100.495 139.757C101.151 140.806 101.364 142.073 101.086 143.279C100.808 144.485 100.062 145.531 99.0124 146.187C97.963 146.844 96.6959 147.056 95.4898 146.778L59.111 138.391C57.9049 138.113 56.8587 137.367 56.2025 136.318C55.5464 135.268 55.3339 134.001 55.612 132.795C55.89 131.589 56.6358 130.543 57.6852 129.887C58.7346 129.231 60.0017 129.018 61.2077 129.296L74.8498 132.441L76.3161 126.081C68.184 123.044 61.4333 117.155 57.322 109.509C53.2106 101.864 52.0191 92.9847 53.9694 84.526C54.2475 83.32 54.9932 82.2738 56.0426 81.6176C57.092 80.9614 58.3591 80.749 59.5652 81.027Z" fill="#D7D7D7"/>
</g>
<defs>
<filter id="filter0_f_343_6171" x="-2" y="-2" width="183.063" height="183.063" filterUnits="userSpaceOnUse" color-interpolation-filters="sRGB">
<feFlood flood-opacity="0" result="BackgroundImageFix"/>
<feBlend mode="normal" in="SourceGraphic" in2="BackgroundImageFix" result="shape"/>
<feGaussianBlur stdDeviation="1" result="effect1_foregroundBlur_343_6171"/>
</filter>
</defs>
</svg>
