<svg width="66" height="100" viewBox="0 0 66 100" fill="none" xmlns="http://www.w3.org/2000/svg">
<path opacity="0.5" d="M26.7129 19.3718C27.1247 15.7535 28.957 12.447 31.8067 10.1797C34.6565 7.91235 38.2902 6.86992 41.9085 7.28173C45.5268 7.69354 48.8333 9.52584 51.1006 12.3756C53.368 15.2253 54.4104 18.859 53.9986 22.4773L50.2721 55.2201C49.8602 58.8384 48.0279 62.145 45.1782 64.4123C42.3285 66.6796 38.6948 67.7221 35.0765 67.3102C31.4582 66.8984 28.1517 65.0661 25.8843 62.2164C23.617 59.3667 22.5746 55.733 22.9864 52.1147L26.7129 19.3718Z" fill="#F75F01"/>
<path fill-rule="evenodd" clip-rule="evenodd" d="M22.6184 18.9061C23.1538 14.2023 25.5358 9.90382 29.2404 6.95628C32.9451 4.00874 37.6689 2.65359 42.3727 3.18894C47.0765 3.72429 51.375 6.10629 54.3225 9.81093C57.27 13.5156 58.6252 18.2394 58.0898 22.9432L54.3633 55.686C53.828 60.3898 51.446 64.6883 47.7413 67.6358C44.0367 70.5834 39.3129 71.9385 34.6091 71.4032C29.9053 70.8678 25.6068 68.4858 22.6593 64.7812C19.7117 61.0765 18.3566 56.3527 18.8919 51.6489L22.6184 18.9061ZM41.441 11.3746C38.9082 11.0864 36.3646 11.8161 34.3698 13.4032C32.375 14.9904 31.0924 17.3049 30.8042 19.8377L27.0776 52.5806C26.7894 55.1134 27.519 57.657 29.1062 59.6518C30.6933 61.6466 33.0079 62.9292 35.5407 63.2175C38.0735 63.5057 40.6171 62.776 42.6119 61.1889C44.6067 59.6018 45.8893 57.2872 46.1776 54.7544L49.9041 22.0115C50.1924 19.4787 49.4627 16.9351 47.8756 14.9403C46.2884 12.9455 43.9739 11.6629 41.441 11.3746ZM9.80773 46.4692C10.8932 46.5927 11.8852 47.1424 12.5654 47.9973C13.2456 48.8522 13.5583 49.9423 13.4348 51.0278C12.7347 57.179 14.5068 63.3563 18.3613 68.2008C22.2158 73.0453 27.8369 76.1602 33.988 76.8603C40.1391 77.5604 46.3164 75.7883 51.1609 71.9338C56.0054 68.0793 59.1204 62.4582 59.8204 56.3071C59.944 55.2216 60.4937 54.2296 61.3486 53.5494C62.2035 52.8692 63.2936 52.5565 64.3791 52.6801C65.4646 52.8036 66.4566 53.3533 67.1368 54.2082C67.817 55.0631 68.1297 56.1532 68.0062 57.2387C67.1398 64.8521 63.5351 71.8908 57.8636 77.0432C52.1922 82.1957 44.8409 85.1105 37.1796 85.2444L36.5281 90.969L48.8067 92.3664C49.8922 92.49 50.8841 93.0396 51.5643 93.8946C52.2445 94.7495 52.5572 95.8396 52.4337 96.9251C52.3102 98.0106 51.7605 99.0025 50.9056 99.6827C50.0506 100.363 48.9605 100.676 47.875 100.552L15.1322 96.8256C14.0467 96.702 13.0548 96.1523 12.3746 95.2974C11.6944 94.4425 11.3816 93.3524 11.5052 92.2669C11.6287 91.1814 12.1784 90.1895 13.0333 89.5093C13.8882 88.8291 14.9783 88.5163 16.0638 88.6399L28.3424 90.0373L28.9939 84.3128C21.5587 82.4607 15.0504 77.9685 10.6818 71.6734C6.31327 65.3782 4.38241 57.7095 5.24906 50.0962C5.37261 49.0107 5.9223 48.0188 6.77721 47.3386C7.63213 46.6584 8.72224 46.3456 9.80773 46.4692Z" fill="#F75F01"/>
</svg>
