<svg width="18" height="22" viewBox="0 0 18 22" fill="none" xmlns="http://www.w3.org/2000/svg">
<path d="M17 21V18C17 15.172 17 13.757 16.121 12.879C15.243 12 13.828 12 11 12L9 14L7 12C4.172 12 2.757 12 1.879 12.879C1 13.757 1 15.172 1 18V21M13 12V17.5" stroke="black" stroke-width="2" stroke-linecap="round" stroke-linejoin="round"/>
<path d="M5.5 12V16M5.5 16C6.03043 16 6.53914 16.2107 6.91421 16.5858C7.28929 16.9609 7.5 17.4696 7.5 18V19M5.5 16C4.96957 16 4.46086 16.2107 4.08579 16.5858C3.71071 16.9609 3.5 17.4696 3.5 18V19M12.5 5.5V4.5C12.5 4.04037 12.4095 3.58525 12.2336 3.16061C12.0577 2.73597 11.7999 2.35013 11.4749 2.02513C11.1499 1.70012 10.764 1.44231 10.3394 1.26642C9.91475 1.09053 9.45963 1 9 1C8.54037 1 8.08525 1.09053 7.66061 1.26642C7.23597 1.44231 6.85013 1.70012 6.52513 2.02513C6.20012 2.35013 5.94231 2.73597 5.76642 3.16061C5.59053 3.58525 5.5 4.04037 5.5 4.5V5.5C5.5 5.95963 5.59053 6.41475 5.76642 6.83939C5.94231 7.26403 6.20012 7.64987 6.52513 7.97487C6.85013 8.29988 7.23597 8.55769 7.66061 8.73358C8.08525 8.90947 8.54037 9 9 9C9.45963 9 9.91475 8.90947 10.3394 8.73358C10.764 8.55769 11.1499 8.29988 11.4749 7.97487C11.7999 7.64987 12.0577 7.26403 12.2336 6.83939C12.4095 6.41475 12.5 5.95963 12.5 5.5ZM13.75 18.25C13.75 18.4489 13.671 18.6397 13.5303 18.7803C13.3897 18.921 13.1989 19 13 19C12.8011 19 12.6103 18.921 12.4697 18.7803C12.329 18.6397 12.25 18.4489 12.25 18.25C12.25 18.0511 12.329 17.8603 12.4697 17.7197C12.6103 17.579 12.8011 17.5 13 17.5C13.1989 17.5 13.3897 17.579 13.5303 17.7197C13.671 17.8603 13.75 18.0511 13.75 18.25Z" stroke="black" stroke-width="2" stroke-linecap="round" stroke-linejoin="round"/>
</svg>
