<svg width="140" height="70" viewBox="0 0 140 70" fill="none" xmlns="http://www.w3.org/2000/svg">
<circle cx="123.5" cy="2.5" r="2.5" fill="#5D57E6"/>
<circle cx="45" cy="2" r="1" fill="#2F2A96"/>
<circle cx="2.5" cy="18.5" r="2.5" fill="#5D57E6"/>
<circle cx="66" cy="69" r="1" fill="#4666CF"/>
<circle cx="16.5" cy="65.5" r="2.5" fill="#2F2A96"/>
<circle cx="88" cy="19" r="1" fill="#4666CF"/>
<path d="M138.813 58.4999C138.815 58.7434 138.741 58.9815 138.602 59.181C138.462 59.3805 138.264 59.5315 138.034 59.6131L133.326 61.3254L131.614 66.0331C131.53 66.2603 131.378 66.4563 131.179 66.5947C130.98 66.7331 130.743 66.8073 130.501 66.8073C130.258 66.8073 130.022 66.7331 129.823 66.5947C129.624 66.4563 129.472 66.2603 129.388 66.0331L127.676 61.3246L122.968 59.6131C122.74 59.5288 122.544 59.3769 122.406 59.1779C122.268 58.9789 122.193 58.7423 122.193 58.4999C122.193 58.2574 122.268 58.0208 122.406 57.8218C122.544 57.6228 122.74 57.4709 122.968 57.3866L127.676 55.6751L129.388 50.9667C129.472 50.7394 129.624 50.5434 129.823 50.405C130.022 50.2666 130.258 50.1924 130.501 50.1924C130.743 50.1924 130.98 50.2666 131.179 50.405C131.378 50.5434 131.53 50.7394 131.614 50.9667L133.326 55.6751L138.034 57.3866C138.264 57.4682 138.462 57.6192 138.602 57.8187C138.741 58.0182 138.815 58.2563 138.813 58.4999Z" fill="#2F2A96"/>
</svg>
