<svg width="180" height="180" viewBox="0 0 180 180" fill="none" xmlns="http://www.w3.org/2000/svg">
<g filter="url(#filter0_f_414_6243)">
<path opacity="0.5" d="M82.0621 52.6901C82.9889 48.67 85.4747 45.1827 88.9727 42.9954C92.4708 40.8081 96.6944 40.1 100.715 41.0268C104.735 41.9536 108.222 44.4395 110.409 47.9375C112.596 51.4355 113.305 55.6592 112.378 59.6793L103.991 96.0581C103.064 100.078 100.578 103.566 97.0801 105.753C93.5821 107.94 89.3584 108.648 85.3383 107.721C81.3182 106.795 77.8309 104.309 75.6436 100.811C73.4563 97.3127 72.7482 93.0891 73.675 89.069L82.0621 52.6901Z" fill="#8E3600" fill-opacity="0.2"/>
<path fill-rule="evenodd" clip-rule="evenodd" d="M77.5153 51.6417C78.7202 46.4156 81.9518 41.8821 86.4992 39.0386C91.0466 36.1951 96.5373 35.2746 101.763 36.4794C106.99 37.6843 111.523 40.9159 114.367 45.4633C117.21 50.0108 118.131 55.5015 116.926 60.7276L108.539 97.1065C107.334 102.333 104.102 106.866 99.5548 109.71C95.0074 112.553 89.5167 113.474 84.2905 112.269C79.0644 111.064 74.5309 107.832 71.6875 103.285C68.844 98.7375 67.9234 93.2467 69.1283 88.0206L77.5153 51.6417ZM99.6667 45.5742C96.8527 44.9254 93.8961 45.4211 91.4475 46.9522C88.9989 48.4833 87.2588 50.9244 86.61 53.7385L78.223 90.1173C77.5742 92.9314 78.0699 95.888 79.601 98.3366C81.1321 100.785 83.5732 102.525 86.3873 103.174C89.2014 103.823 92.1579 103.327 94.6065 101.796C97.0551 100.265 98.7952 97.8238 99.444 95.0098L107.831 58.6309C108.48 55.8168 107.984 52.8603 106.453 50.4116C104.922 47.963 102.481 46.2229 99.6667 45.5742ZM59.5662 81.027C60.7722 81.3051 61.8184 82.0508 62.4746 83.1002C63.1307 84.1496 63.3432 85.4167 63.0651 86.6228C61.4895 93.457 62.6933 100.637 66.4117 106.584C70.1301 112.53 76.0585 116.756 82.8927 118.332C89.7269 119.908 96.9071 118.704 102.854 114.985C108.8 111.267 113.026 105.339 114.602 98.5044C114.88 97.2983 115.626 96.2521 116.675 95.5959C117.724 94.9398 118.992 94.7273 120.198 95.0054C121.404 95.2834 122.45 96.0292 123.106 97.0786C123.762 98.128 123.975 99.3951 123.697 100.601C121.747 109.06 116.788 116.521 109.744 121.595C102.701 126.668 94.0527 129.008 85.4118 128.178L83.9455 134.538L97.5876 137.683C98.7936 137.961 99.8398 138.707 100.496 139.757C101.152 140.806 101.365 142.073 101.087 143.279C100.808 144.485 100.063 145.531 99.0133 146.187C97.9639 146.844 96.6968 147.056 95.4908 146.778L59.1119 138.391C57.9059 138.113 56.8597 137.367 56.2035 136.318C55.5473 135.268 55.3349 134.001 55.6129 132.795C55.891 131.589 56.6367 130.543 57.6862 129.887C58.7356 129.231 60.0026 129.018 61.2087 129.296L74.8508 132.441L76.3171 126.081C68.185 123.044 61.4343 117.155 57.3229 109.509C53.2116 101.864 52.0201 92.9847 53.9704 84.526C54.2485 83.32 54.9942 82.2738 56.0436 81.6176C57.093 80.9614 58.3601 80.749 59.5662 81.027Z" fill="#8E3600" fill-opacity="0.2"/>
</g>
<defs>
<filter id="filter0_f_414_6243" x="-2" y="-2" width="183.064" height="183.063" filterUnits="userSpaceOnUse" color-interpolation-filters="sRGB">
<feFlood flood-opacity="0" result="BackgroundImageFix"/>
<feBlend mode="normal" in="SourceGraphic" in2="BackgroundImageFix" result="shape"/>
<feGaussianBlur stdDeviation="1" result="effect1_foregroundBlur_414_6243"/>
</filter>
</defs>
</svg>
