<svg width="171" height="170" viewBox="0 0 171 170" fill="none" xmlns="http://www.w3.org/2000/svg">
<path d="M0 0V169.469H6.57422V132.544C62.1994 143.281 107.963 143.281 163.625 132.544V169.469H170.199V0H163.625V5.84375H155.225V17.5312H163.625V29.2188H155.225V40.9062H163.625V125.86C107.635 136.78 62.5646 136.78 6.57422 125.86V29.2188H14.9746V17.5312H6.57422V0H0ZM14.9746 17.5312H26.6621V5.84375H14.9746V17.5312ZM26.6621 17.5312V29.2188H38.3496V17.5312H26.6621ZM38.3496 17.5312H50.0371V5.84375H38.3496V17.5312ZM50.0371 17.5312V29.2188H61.7246V17.5312H50.0371ZM61.7246 17.5312H73.4121V5.84375H61.7246V17.5312ZM73.4121 17.5312V29.2188H85.0996V17.5312H73.4121ZM85.0996 17.5312H96.7871V5.84375H85.0996V17.5312ZM96.7871 17.5312V29.2188H108.475V17.5312H96.7871ZM108.475 17.5312H120.162V5.84375H108.475V17.5312ZM120.162 17.5312V29.2188H131.85V17.5312H120.162ZM131.85 17.5312H143.537V5.84375H131.85V17.5312ZM143.537 17.5312V29.2188H155.225V17.5312H143.537ZM143.537 29.2188H131.85V40.9062H143.537V29.2188ZM120.162 29.2188H108.475V40.9062H120.162V29.2188ZM96.7871 29.2188H85.0996V40.9062H96.7871V29.2188ZM73.4121 29.2188H61.7246V40.9062H73.4121V29.2188ZM50.0371 29.2188H38.3496V40.9062H50.0371V29.2188ZM26.6621 29.2188H14.9746V40.9062H26.6621V29.2188Z" fill="#9FBAF1" fill-opacity="0.3"/>
</svg>
