<svg width="71" height="112" viewBox="0 0 71 112" fill="none" xmlns="http://www.w3.org/2000/svg">
<path fill-rule="evenodd" clip-rule="evenodd" d="M24.5153 16.6417C25.7202 11.4156 28.9518 6.88209 33.4992 4.03861C38.0466 1.19514 43.5373 0.274577 48.7635 1.47945C53.9896 2.68431 58.5231 5.91591 61.3666 10.4633C64.2101 15.0108 65.1306 20.5015 63.9257 25.7276L55.5387 62.1065C54.3339 67.3327 51.1023 71.8661 46.5548 74.7096C42.0074 77.5531 36.5167 78.4736 31.2905 77.2688C26.0644 76.0639 21.5309 72.8323 18.6875 68.2849C15.844 63.7375 14.9234 58.2467 16.1283 53.0206L24.5153 16.6417ZM46.6667 10.5742C43.8527 9.92539 40.8961 10.4211 38.4475 11.9522C35.9989 13.4833 34.2588 15.9244 33.61 18.7385L25.223 55.1173C24.5742 57.9314 25.0699 60.888 26.601 63.3366C28.1321 65.7852 30.5732 67.5253 33.3873 68.1741C36.2014 68.8228 39.1579 68.3272 41.6065 66.7961C44.0551 65.265 45.7952 62.8238 46.444 60.0098L54.831 23.6309C55.4798 20.8168 54.9841 17.8603 53.453 15.4116C51.9219 12.963 49.4808 11.2229 46.6667 10.5742ZM6.56615 46.027C7.77219 46.3051 8.81837 47.0508 9.47456 48.1002C10.1307 49.1496 10.3432 50.4167 10.0651 51.6228C8.48954 58.457 9.69334 65.6371 13.4117 71.5838C17.1301 77.5304 23.0585 81.7563 29.8927 83.3319C36.7269 84.9075 43.9071 83.7037 49.8537 79.9853C55.8003 76.2669 60.0263 70.3386 61.6019 63.5044C61.8799 62.2983 62.6257 61.2521 63.6751 60.5959C64.7245 59.9398 65.9916 59.7273 67.1976 60.0054C68.4037 60.2834 69.4498 61.0292 70.106 62.0786C70.7622 63.128 70.9746 64.3951 70.6966 65.6011C68.7466 74.0599 63.7879 81.5213 56.7442 86.5948C49.7006 91.6684 41.0527 94.0081 32.4118 93.1779L30.9455 99.5382L44.5876 102.683C45.7936 102.961 46.8398 103.707 47.496 104.757C48.1522 105.806 48.3646 107.073 48.0865 108.279C47.8085 109.485 47.0627 110.531 46.0133 111.187C44.9639 111.844 43.6968 112.056 42.4908 111.778L6.11193 103.391C4.9059 103.113 3.85971 102.367 3.20352 101.318C2.54734 100.268 2.3349 99.0013 2.61295 97.7953C2.89099 96.5892 3.63675 95.5431 4.68615 94.8869C5.73556 94.2307 7.00265 94.0182 8.20868 94.2963L21.8508 97.4414L23.3171 91.0812C15.185 88.0444 8.43428 82.1546 4.32295 74.5093C0.211621 66.864 -0.979897 57.9847 0.970417 49.526C1.24846 48.32 1.99422 47.2738 3.04362 46.6176C4.09302 45.9614 5.36012 45.749 6.56615 46.027Z" fill="#8E3600" fill-opacity="0.2"/>
</svg>
