<svg width="175" height="78" viewBox="0 0 175 78" fill="none" xmlns="http://www.w3.org/2000/svg">
<path d="M128.133 39.2617C125.385 39.2617 123.413 38.6758 122.215 37.5039C121.017 36.319 120.418 34.3594 120.418 31.625V21.0977C120.418 20.5508 120.594 20.0951 120.945 19.7305C121.297 19.3659 121.746 19.1836 122.293 19.1836C122.827 19.1836 123.27 19.3659 123.621 19.7305C123.973 20.0951 124.148 20.5508 124.148 21.0977V30.3164C124.148 31.332 124.259 32.1393 124.48 32.7383C124.715 33.3372 125.151 33.7669 125.789 34.0273C126.427 34.2747 127.365 34.3984 128.602 34.3984L128.133 39.2617ZM116.336 36.2539C114.956 36.2539 113.79 36 112.84 35.4922C111.889 34.9714 111.173 34.2747 110.691 33.4023C110.21 32.5169 109.969 31.5339 109.969 30.4531C109.969 29.3464 110.216 28.3503 110.711 27.4648C111.206 26.5794 111.935 25.7656 112.898 25.0234C113.875 24.2812 115.073 23.6107 116.492 23.0117C117.924 22.3997 119.578 21.8333 121.453 21.3125V25.2969C120.073 25.7005 118.888 26.0846 117.898 26.4492C116.909 26.8008 116.095 27.1589 115.457 27.5234C114.832 27.888 114.363 28.2721 114.051 28.6758C113.751 29.0664 113.602 29.4961 113.602 29.9648C113.602 30.4987 113.855 30.9349 114.363 31.2734C114.871 31.599 115.574 31.7617 116.473 31.7617C117.41 31.7617 118.289 31.612 119.109 31.3125C119.93 31.013 120.587 30.6354 121.082 30.1797L122.156 33.7539C121.44 34.5091 120.568 35.1146 119.539 35.5703C118.523 36.026 117.456 36.2539 116.336 36.2539ZM128.133 39.2617C127.898 39.2617 127.729 39.1966 127.625 39.0664C127.521 38.9232 127.475 38.7409 127.488 38.5195L127.859 35.1406C127.924 34.6458 128.172 34.3984 128.602 34.3984C128.823 34.3984 128.986 34.4701 129.09 34.6133C129.207 34.7435 129.253 34.9193 129.227 35.1406L128.855 38.5195C128.803 39.0143 128.562 39.2617 128.133 39.2617ZM116.434 15.8633C115.835 15.8633 115.314 15.6484 114.871 15.2188C114.441 14.776 114.227 14.2552 114.227 13.6562C114.227 13.0443 114.441 12.5299 114.871 12.1133C115.314 11.6836 115.835 11.4688 116.434 11.4688C117.033 11.4688 117.547 11.6836 117.977 12.1133C118.406 12.5299 118.621 13.0443 118.621 13.6562C118.621 14.2552 118.406 14.776 117.977 15.2188C117.547 15.6484 117.033 15.8633 116.434 15.8633ZM121.688 15.8633C121.089 15.8633 120.568 15.6484 120.125 15.2188C119.695 14.776 119.48 14.2552 119.48 13.6562C119.48 13.0443 119.695 12.5299 120.125 12.1133C120.568 11.6836 121.089 11.4688 121.688 11.4688C122.286 11.4688 122.801 11.6836 123.23 12.1133C123.673 12.5299 123.895 13.0443 123.895 13.6562C123.895 14.2552 123.673 14.776 123.23 15.2188C122.801 15.6484 122.286 15.8633 121.688 15.8633ZM140.828 23.6758C141.922 23.6758 142.866 23.9753 143.66 24.5742C144.454 25.1732 145.125 25.9479 145.672 26.8984C146.219 27.849 146.674 28.8711 147.039 29.9648C147.352 30.9414 147.664 31.7617 147.977 32.4258C148.302 33.0768 148.751 33.5716 149.324 33.9102C149.91 34.2357 150.737 34.3984 151.805 34.3984L151.336 39.2617C149.956 39.2617 148.829 39.0404 147.957 38.5977C147.098 38.1419 146.44 37.5234 145.984 36.7422C145.542 35.9609 145.242 35.0755 145.086 34.0859L146.336 33.5C146.401 34.724 146.186 35.7656 145.691 36.625C145.21 37.4844 144.507 38.1419 143.582 38.5977C142.658 39.0404 141.583 39.2617 140.359 39.2617C139.24 39.2617 138.178 39.0924 137.176 38.7539C136.186 38.4154 135.307 37.9531 134.539 37.3672C133.784 36.7682 133.191 36.1042 132.762 35.375L134.285 31.6836C134.741 32.2305 135.307 32.7318 135.984 33.1875C136.661 33.6432 137.417 34.0143 138.25 34.3008C139.096 34.5742 139.969 34.7109 140.867 34.7109C141.479 34.7109 142.02 34.6068 142.488 34.3984C142.957 34.1771 143.302 33.8451 143.523 33.4023C143.758 32.9466 143.816 32.3737 143.699 31.6836C143.634 31.1237 143.465 30.5703 143.191 30.0234C142.931 29.4635 142.573 29.0013 142.117 28.6367C141.674 28.2721 141.128 28.0898 140.477 28.0898C139.396 28.0898 138.491 28.6107 137.762 29.6523C137.046 30.681 136.329 31.957 135.613 33.4805L134.676 35.0234C134.09 36.0521 133.523 36.8789 132.977 37.5039C132.43 38.1159 131.779 38.5651 131.023 38.8516C130.281 39.125 129.324 39.2617 128.152 39.2617L128.621 34.3984C129.467 34.3984 130.151 34.2552 130.672 33.9688C131.206 33.6823 131.674 33.2461 132.078 32.6602C132.495 32.0742 132.951 31.332 133.445 30.4336L134.48 28.5195C135.301 26.9831 136.199 25.7917 137.176 24.9453C138.152 24.099 139.37 23.6758 140.828 23.6758ZM151.336 39.2617C151.115 39.2617 150.945 39.1966 150.828 39.0664C150.724 38.9232 150.685 38.7409 150.711 38.5195L151.082 35.1406C151.147 34.6458 151.388 34.3984 151.805 34.3984C152.026 34.3984 152.195 34.4701 152.312 34.6133C152.43 34.7435 152.475 34.9193 152.449 35.1406L152.078 38.5195C152.026 39.0143 151.779 39.2617 151.336 39.2617ZM128.621 34.3984C128.842 34.3984 129.012 34.4701 129.129 34.6133C129.246 34.7435 129.285 34.9193 129.246 35.1406L128.875 38.5195C128.823 39.0143 128.582 39.2617 128.152 39.2617C127.931 39.2617 127.768 39.1966 127.664 39.0664C127.547 38.9232 127.495 38.7409 127.508 38.5195L127.879 35.1406C127.931 34.6458 128.178 34.3984 128.621 34.3984ZM151.355 39.2617L151.824 34.3984C152.84 34.3984 153.66 34.2943 154.285 34.0859C154.923 33.8776 155.392 33.4674 155.691 32.8555C156.004 32.2435 156.16 31.3385 156.16 30.1406V12.0352C156.16 11.4883 156.336 11.0326 156.688 10.668C157.039 10.3034 157.495 10.1211 158.055 10.1211C158.602 10.1211 159.051 10.3034 159.402 10.668C159.767 11.0326 159.949 11.4883 159.949 12.0352V30.1406C159.949 31.3385 160.099 32.2435 160.398 32.8555C160.698 33.4674 161.167 33.8776 161.805 34.0859C162.456 34.2943 163.283 34.3984 164.285 34.3984L163.816 39.2617C162.592 39.2617 161.512 39.099 160.574 38.7734C159.637 38.4349 158.882 37.888 158.309 37.1328C157.736 36.3646 157.371 35.3359 157.215 34.0469L158.211 34.1445C158.029 35.5247 157.638 36.5859 157.039 37.3281C156.453 38.0573 155.678 38.5651 154.715 38.8516C153.764 39.125 152.645 39.2617 151.355 39.2617ZM163.816 39.2617C163.595 39.2617 163.426 39.1966 163.309 39.0664C163.204 38.9232 163.159 38.7409 163.172 38.5195L163.562 35.1406C163.628 34.6458 163.868 34.3984 164.285 34.3984C164.507 34.3984 164.676 34.4701 164.793 34.6133C164.91 34.7435 164.949 34.9193 164.91 35.1406L164.539 38.5195C164.5 39.0143 164.259 39.2617 163.816 39.2617ZM151.824 34.3984C152.046 34.3984 152.215 34.4701 152.332 34.6133C152.449 34.7435 152.488 34.9193 152.449 35.1406L152.078 38.5195C152.026 39.0143 151.785 39.2617 151.355 39.2617C151.134 39.2617 150.971 39.1966 150.867 39.0664C150.75 38.9232 150.698 38.7409 150.711 38.5195L151.082 35.1406C151.134 34.6458 151.382 34.3984 151.824 34.3984ZM163.816 39.2617L164.285 34.3984H169.188C170.607 34.3984 171.642 34.1966 172.293 33.793C172.957 33.3763 173.289 32.8229 173.289 32.1328C173.289 31.4948 173.009 30.8242 172.449 30.1211C171.889 29.4049 170.978 28.5391 169.715 27.5234C168.465 26.4948 166.798 25.1732 164.715 23.5586C164.298 23.2461 163.908 22.8685 163.543 22.4258C163.165 21.9831 162.977 21.3581 162.977 20.5508C162.977 19.8346 163.152 19.2357 163.504 18.7539C163.855 18.2591 164.37 17.8555 165.047 17.543L176.59 11.6641C176.928 11.4948 177.26 11.4102 177.586 11.4102C178.107 11.4102 178.543 11.5924 178.895 11.957C179.259 12.3086 179.441 12.7578 179.441 13.3047C179.441 13.7083 179.331 14.0599 179.109 14.3594C178.901 14.6589 178.641 14.8867 178.328 15.043L165.789 21.1758L166.863 20.1602C168.725 21.5664 170.301 22.7969 171.59 23.8516C172.879 24.9062 173.921 25.8763 174.715 26.7617C175.509 27.6471 176.089 28.5195 176.453 29.3789C176.818 30.2383 177 31.1693 177 32.1719C177 33.474 176.759 34.5938 176.277 35.5312C175.796 36.4557 175.105 37.1979 174.207 37.7578C173.413 38.2656 172.469 38.6432 171.375 38.8906C170.281 39.138 169.09 39.2617 167.801 39.2617H163.816ZM164.285 34.3984C164.507 34.3984 164.676 34.4701 164.793 34.6133C164.91 34.7435 164.949 34.9193 164.91 35.1406L164.539 38.5195C164.487 39.0143 164.246 39.2617 163.816 39.2617C163.595 39.2617 163.432 39.1966 163.328 39.0664C163.211 38.9232 163.159 38.7409 163.172 38.5195L163.543 35.1406C163.595 34.6458 163.842 34.3984 164.285 34.3984Z" fill="#44B076"/>
<path d="M18.8984 65.1055C17.5312 65.1055 16.3203 64.8776 15.2656 64.4219C14.224 63.9661 13.3385 63.1784 12.6094 62.0586C11.8802 60.9388 11.3203 59.3763 10.9297 57.3711C10.9297 56.8893 10.806 56.5182 10.5586 56.2578C10.3112 55.9974 10.0247 55.7435 9.69922 55.4961L7.17969 46.9023C7.03646 46.4206 7.04948 45.9453 7.21875 45.4766C7.38802 44.9948 7.67448 44.5977 8.07812 44.2852C8.49479 43.9727 8.98958 43.8164 9.5625 43.8164C10.1745 43.8164 10.6823 43.9987 11.0859 44.3633C11.5026 44.7148 11.7826 45.1185 11.9258 45.5742L14.25 53.1914C14.7057 54.7148 15.1224 55.8802 15.5 56.6875C15.8776 57.4818 16.3594 58.0286 16.9453 58.3281C17.5312 58.6146 18.3646 58.7578 19.4453 58.7578L18.8984 65.1055ZM4.28906 65.2422C1.60677 65.2422 -0.450521 64.6758 -1.88281 63.543C-3.30208 62.3971 -4.01172 60.724 -4.01172 58.5234C-4.01172 58.0938 -3.99219 57.6901 -3.95312 57.3125C-3.91406 56.9219 -3.86198 56.5508 -3.79688 56.1992C-3.69271 55.7305 -3.45833 55.3073 -3.09375 54.9297C-2.72917 54.5521 -2.2474 54.3633 -1.64844 54.3633C-1.08854 54.3633 -0.619792 54.5521 -0.242188 54.9297C0.148438 55.2943 0.34375 55.75 0.34375 56.2969C0.34375 56.362 0.34375 56.4206 0.34375 56.4727C0.34375 56.5117 0.34375 56.5638 0.34375 56.6289C0.34375 57.4232 0.65625 58.0026 1.28125 58.3672C1.90625 58.7188 2.98047 58.8945 4.50391 58.8945H5.83203C7.35547 58.8945 8.42318 58.7318 9.03516 58.4062C9.66016 58.0807 9.97266 57.599 9.97266 56.9609C9.97266 56.7786 9.94661 56.5703 9.89453 56.3359C9.85547 56.0885 9.79036 55.8086 9.69922 55.4961L12.0625 53.8555C12.375 54.5195 12.6159 55.2031 12.7852 55.9062C12.9674 56.6094 13.0586 57.4167 13.0586 58.3281C13.1237 60.5026 12.5443 62.2018 11.3203 63.4258C10.0964 64.6367 8.18229 65.2422 5.57812 65.2422H4.28906ZM18.8984 65.1055C18.625 65.1055 18.4167 65.0273 18.2734 64.8711C18.1302 64.7018 18.0716 64.4805 18.0977 64.207L18.5859 59.6562C18.6641 59.0573 18.9505 58.7578 19.4453 58.7578C19.7188 58.7578 19.9271 58.8424 20.0703 59.0117C20.2135 59.181 20.2656 59.3958 20.2266 59.6562L19.7578 64.207C19.6927 64.806 19.4062 65.1055 18.8984 65.1055ZM35.3438 72.0938C34.6276 72.0938 34.0156 71.8398 33.5078 71.332C33 70.8242 32.7461 70.2122 32.7461 69.4961C32.7461 68.7799 33 68.168 33.5078 67.6602C34.0156 67.1523 34.6276 66.8984 35.3438 66.8984C36.0599 66.8984 36.6719 67.1523 37.1797 67.6602C37.6875 68.168 37.9414 68.7799 37.9414 69.4961C37.9414 70.2122 37.6875 70.8242 37.1797 71.332C36.6719 71.8398 36.0599 72.0938 35.3438 72.0938ZM47.8047 65.1055C45.1224 65.1055 43.1042 64.4674 41.75 63.1914C40.4089 61.9023 39.7383 59.806 39.7383 56.9023V53.8945L42.9805 53.8164V54.4023C42.9805 55.4961 43.1107 56.362 43.3711 57C43.6445 57.625 44.1523 58.0742 44.8945 58.3477C45.6367 58.6211 46.7174 58.7578 48.1367 58.7578H49.3477L48.8008 65.1055H47.8047ZM48.8008 65.1055C48.5273 65.1055 48.319 65.0273 48.1758 64.8711C48.0326 64.7018 47.974 64.4805 48 64.207L48.4883 59.6562C48.5664 59.0573 48.8529 58.7578 49.3477 58.7578C49.6211 58.7578 49.8294 58.8424 49.9727 59.0117C50.1159 59.181 50.1745 59.3958 50.1484 59.6562L49.6602 64.207C49.5951 64.806 49.3086 65.1055 48.8008 65.1055ZM18.8984 65.1055L19.4453 58.7578C21.125 58.7578 22.694 58.6992 24.1523 58.582C25.6237 58.4648 27.0169 58.2826 28.332 58.0352C29.6602 57.7747 30.9492 57.4427 32.1992 57.0391C33.1888 56.7005 33.9961 56.4076 34.6211 56.1602C35.2461 55.9128 35.7995 55.6914 36.2812 55.4961C36.763 55.3008 37.2904 55.1185 37.8633 54.9492L37.7461 55.8477C36.7174 55.6003 35.7799 55.3008 34.9336 54.9492C34.1003 54.5977 33.2604 54.2461 32.4141 53.8945C31.5677 53.543 30.6367 53.25 29.6211 53.0156C28.6055 52.7812 27.4141 52.6641 26.0469 52.6641C25.513 52.6641 25.0247 52.6966 24.582 52.7617C24.1393 52.8268 23.7552 52.8659 23.4297 52.8789C22.7526 52.918 22.1862 52.7096 21.7305 52.2539C21.2747 51.7982 21.0469 51.2578 21.0469 50.6328C21.0469 49.8906 21.2552 49.2982 21.6719 48.8555C22.0885 48.3997 22.5638 48.0612 23.0977 47.8398C23.5404 47.6576 24.0742 47.5143 24.6992 47.4102C25.3372 47.306 25.9883 47.2539 26.6523 47.2539C28.0195 47.2539 29.25 47.3906 30.3438 47.6641C31.4375 47.9245 32.4661 48.2565 33.4297 48.6602C34.3932 49.0508 35.3503 49.4544 36.3008 49.8711C37.2643 50.2878 38.2734 50.6589 39.3281 50.9844C40.3958 51.2969 41.6003 51.4922 42.9414 51.5703L43.4297 51.5898C44.3151 51.668 45.0378 51.9609 45.5977 52.4688C46.1576 52.9766 46.4375 53.6602 46.4375 54.5195C46.4375 55.3659 46.1576 56.0495 45.5977 56.5703C45.0378 57.0781 44.3151 57.3776 43.4297 57.4688L43.0586 57.5078C42.4987 57.5469 41.8932 57.6641 41.2422 57.8594C40.5911 58.0417 39.7448 58.3932 38.7031 58.9141C37.6615 59.4219 36.2943 60.1901 34.6016 61.2188C33.0521 62.1432 31.4896 62.8919 29.9141 63.4648C28.3385 64.0378 26.6523 64.4544 24.8555 64.7148C23.0716 64.9753 21.0859 65.1055 18.8984 65.1055ZM19.4453 58.7578C19.7188 58.7578 19.9271 58.8424 20.0703 59.0117C20.2135 59.168 20.2656 59.3828 20.2266 59.6562L19.7578 64.207C19.6927 64.806 19.4062 65.1055 18.8984 65.1055C18.625 65.1055 18.4167 65.0273 18.2734 64.8711C18.1302 64.7018 18.0716 64.4805 18.0977 64.207L18.5859 59.6562C18.651 59.0573 18.9375 58.7578 19.4453 58.7578ZM53.625 73.0938C52.9089 73.0938 52.2969 72.8398 51.7891 72.332C51.2812 71.8242 51.0273 71.2122 51.0273 70.4961C51.0273 69.7799 51.2812 69.168 51.7891 68.6602C52.2969 68.1523 52.9089 67.8984 53.625 67.8984C54.3411 67.8984 54.9531 68.1523 55.4609 68.6602C55.9688 69.168 56.2227 69.7799 56.2227 70.4961C56.2227 71.2122 55.9688 71.8242 55.4609 72.332C54.9531 72.8398 54.3411 73.0938 53.625 73.0938ZM48.8203 65.1055L49.3672 58.7578C50.7344 58.7578 51.8281 58.5755 52.6484 58.2109C53.4818 57.8464 53.8984 57.0977 53.8984 55.9648C53.8984 55.1836 53.8203 54.3633 53.6641 53.5039C53.5078 52.6315 53.3516 51.8438 53.1953 51.1406C53.0521 50.4375 52.9805 49.9427 52.9805 49.6562C52.9805 48.9661 53.2083 48.3932 53.6641 47.9375C54.1328 47.4818 54.7188 47.2539 55.4219 47.2539C56.138 47.2539 56.7174 47.4622 57.1602 47.8789C57.6159 48.2956 57.9349 48.9271 58.1172 49.7734C58.2995 50.6198 58.4557 51.5443 58.5859 52.5469C58.7292 53.5495 58.8008 54.6823 58.8008 55.9453C58.8008 57.5339 58.5794 58.9141 58.1367 60.0859C57.694 61.2578 57.043 62.2279 56.1836 62.9961C55.4023 63.6992 54.4128 64.2266 53.2148 64.5781C52.0169 64.9297 50.5521 65.1055 48.8203 65.1055ZM49.3672 58.7578C49.6406 58.7578 49.849 58.8424 49.9922 59.0117C50.1354 59.168 50.1875 59.3828 50.1484 59.6562L49.6797 64.207C49.6146 64.806 49.3281 65.1055 48.8203 65.1055C48.5469 65.1055 48.3385 65.0273 48.1953 64.8711C48.0521 64.7018 47.9935 64.4805 48.0195 64.207L48.5078 59.6562C48.5729 59.0573 48.8594 58.7578 49.3672 58.7578ZM66.418 65.3203C65.7018 65.3203 65.1094 65.0859 64.6406 64.6172C64.1719 64.1354 63.9375 63.543 63.9375 62.8398V43.2891C63.9375 42.5729 64.1719 41.9805 64.6406 41.5117C65.1094 41.043 65.7018 40.8086 66.418 40.8086C67.1211 40.8086 67.7005 41.043 68.1562 41.5117C68.625 41.9805 68.8594 42.5729 68.8594 43.2891V62.8398C68.8594 63.543 68.6315 64.1354 68.1758 64.6172C67.7201 65.0859 67.1341 65.3203 66.418 65.3203ZM63.0391 39.4219C62.6875 39.5 62.362 39.4349 62.0625 39.2266C61.763 39.0052 61.6133 38.6927 61.6133 38.2891C61.6133 37.9505 61.7044 37.6836 61.8867 37.4883C62.082 37.2799 62.3099 37.1497 62.5703 37.0977L64.2695 36.7461L64.25 37.1758C63.7682 37.0846 63.332 36.7786 62.9414 36.2578C62.5508 35.737 62.3555 35.0924 62.3555 34.3242C62.3555 33.1784 62.7852 32.2409 63.6445 31.5117C64.5039 30.7826 65.6107 30.418 66.9648 30.418C67.3945 30.418 67.8112 30.4635 68.2148 30.5547C68.6185 30.6458 68.9635 30.763 69.25 30.9062C69.5234 31.0495 69.7253 31.2253 69.8555 31.4336C69.9857 31.6289 70.0508 31.8503 70.0508 32.0977C70.0508 32.4622 69.9336 32.7682 69.6992 33.0156C69.4648 33.263 69.1589 33.3867 68.7812 33.3867C68.5599 33.3867 68.332 33.3477 68.0977 33.2695C67.8633 33.1914 67.5247 33.1523 67.082 33.1523C66.457 33.1523 65.8971 33.276 65.4023 33.5234C64.9206 33.7708 64.6797 34.1159 64.6797 34.5586C64.6797 34.9492 64.8685 35.2357 65.2461 35.418C65.6367 35.5872 66.1836 35.6719 66.8867 35.6719C67.6419 35.6719 68.293 35.6068 68.8398 35.4766C69.3997 35.3333 69.8099 35.2617 70.0703 35.2617C70.4219 35.2617 70.7083 35.3789 70.9297 35.6133C71.151 35.8477 71.2617 36.1341 71.2617 36.4727C71.2617 36.7982 71.1641 37.0651 70.9688 37.2734C70.7734 37.4818 70.5651 37.612 70.3438 37.6641L63.0391 39.4219Z" fill="#44B076"/>
</svg>
