<svg width="35" height="35" viewBox="0 0 35 35" fill="none" xmlns="http://www.w3.org/2000/svg">
<path d="M29.1663 32.0864V27.7114C29.1663 23.5873 29.1663 21.5237 27.8845 20.2433C26.6041 18.9614 24.5405 18.9614 20.4163 18.9614L17.4997 21.8781L14.583 18.9614C10.4588 18.9614 8.3953 18.9614 7.11488 20.2433C5.83301 21.5237 5.83301 23.5873 5.83301 27.7114V32.0864M23.333 18.9614V26.9823" stroke="#AAAAAA" stroke-width="2" stroke-linecap="round" stroke-linejoin="round"/>
<path d="M12.3952 18.9616V24.7949M12.3952 24.7949C13.1687 24.7949 13.9106 25.1022 14.4576 25.6492C15.0046 26.1962 15.3118 26.938 15.3118 27.7116V29.1699M12.3952 24.7949C11.6216 24.7949 10.8798 25.1022 10.3328 25.6492C9.78581 26.1962 9.47852 26.938 9.47852 27.7116V29.1699M22.6035 9.48242V8.02409C22.6035 7.3538 22.4715 6.69007 22.215 6.07081C21.9585 5.45154 21.5825 4.88886 21.1085 4.4149C20.6346 3.94093 20.0719 3.56496 19.4526 3.30845C18.8334 3.05195 18.1696 2.91992 17.4993 2.91992C16.8291 2.91992 16.1653 3.05195 15.5461 3.30845C14.9268 3.56496 14.3641 3.94093 13.8902 4.4149C13.4162 4.88886 13.0402 5.45154 12.7837 6.07081C12.5272 6.69007 12.3952 7.3538 12.3952 8.02409V9.48242C12.3952 10.1527 12.5272 10.8164 12.7837 11.4357C13.0402 12.055 13.4162 12.6176 13.8902 13.0916C14.3641 13.5656 14.9268 13.9415 15.5461 14.1981C16.1653 14.4546 16.8291 14.5866 17.4993 14.5866C18.1696 14.5866 18.8334 14.4546 19.4526 14.1981C20.0719 13.9415 20.6346 13.5656 21.1085 13.0916C21.5825 12.6176 21.9585 12.055 22.215 11.4357C22.4715 10.8164 22.6035 10.1527 22.6035 9.48242ZM24.4264 28.0762C24.4264 28.3663 24.3112 28.6445 24.1061 28.8496C23.901 29.0547 23.6228 29.1699 23.3327 29.1699C23.0426 29.1699 22.7644 29.0547 22.5593 28.8496C22.3542 28.6445 22.2389 28.3663 22.2389 28.0762C22.2389 27.7861 22.3542 27.5079 22.5593 27.3028C22.7644 27.0977 23.0426 26.9824 23.3327 26.9824C23.6228 26.9824 23.901 27.0977 24.1061 27.3028C24.3112 27.5079 24.4264 27.7861 24.4264 28.0762Z" stroke="#AAAAAA" stroke-width="2" stroke-linecap="round" stroke-linejoin="round"/>
</svg>
