<svg width="35" height="35" viewBox="0 0 35 35" fill="none" xmlns="http://www.w3.org/2000/svg">
<path d="M13.1253 7.29492H10.2087C9.43511 7.29492 8.69324 7.60221 8.14626 8.14919C7.59928 8.69617 7.29199 9.43804 7.29199 10.2116V27.7116C7.29199 28.4851 7.59928 29.227 8.14626 29.774C8.69324 30.321 9.43511 30.6283 10.2087 30.6283H24.792C25.5655 30.6283 26.3074 30.321 26.8544 29.774C27.4014 29.227 27.7087 28.4851 27.7087 27.7116V10.2116C27.7087 9.43804 27.4014 8.69617 26.8544 8.14919C26.3074 7.60221 25.5655 7.29492 24.792 7.29492H21.8753" stroke="#AAAAAA" stroke-width="2" stroke-linecap="round" stroke-linejoin="round"/>
<path d="M14.5833 20.4201H20.4167M17.5 17.5034V23.3368M13.125 7.29508C13.125 6.52154 13.4323 5.77967 13.9793 5.23269C14.5263 4.68571 15.2681 4.37842 16.0417 4.37842H18.9583C19.7319 4.37842 20.4737 4.68571 21.0207 5.23269C21.5677 5.77967 21.875 6.52154 21.875 7.29508C21.875 8.06863 21.5677 8.8105 21.0207 9.35748C20.4737 9.90446 19.7319 10.2118 18.9583 10.2118H16.0417C15.2681 10.2118 14.5263 9.90446 13.9793 9.35748C13.4323 8.8105 13.125 8.06863 13.125 7.29508Z" stroke="#AAAAAA" stroke-width="2" stroke-linecap="round" stroke-linejoin="round"/>
</svg>
