<svg width="35" height="35" viewBox="0 0 35 35" fill="none" xmlns="http://www.w3.org/2000/svg">
<path d="M18.1875 4.31592C17.732 4.31592 17.2809 4.40564 16.8601 4.57996C16.4392 4.75428 16.0568 5.00979 15.7347 5.33189C15.4126 5.65399 15.1571 6.03639 14.9828 6.45723C14.8085 6.87808 14.7188 7.32915 14.7188 7.78467C14.7188 8.24019 14.8085 8.69125 14.9828 9.1121C15.1571 9.53295 15.4126 9.91534 15.7347 10.2374C16.0568 10.5595 16.4392 10.8151 16.8601 10.9894C17.2809 11.1637 17.732 11.2534 18.1875 11.2534C19.1075 11.2534 19.9898 10.888 20.6403 10.2374C21.2908 9.58693 21.6562 8.70464 21.6562 7.78467C21.6562 6.8647 21.2908 5.98241 20.6403 5.33189C19.9898 4.68137 19.1075 4.31592 18.1875 4.31592ZM12.4062 7.78467C12.4062 6.25139 13.0153 4.7809 14.0995 3.69671C15.1837 2.61251 16.6542 2.00342 18.1875 2.00342C19.7208 2.00342 21.1913 2.61251 22.2755 3.69671C23.3597 4.7809 23.9688 6.25139 23.9688 7.78467C23.9688 9.31795 23.3597 10.7884 22.2755 11.8726C21.1913 12.9568 19.7208 13.5659 18.1875 13.5659C16.6542 13.5659 15.1837 12.9568 14.0995 11.8726C13.0153 10.7884 12.4062 9.31795 12.4062 7.78467ZM8.9375 19.3472C8.93904 18.9248 8.98221 18.5162 9.067 18.1215L4.5715 19.324C4.13142 19.4421 3.7189 19.6457 3.35752 19.9232C2.99614 20.2007 2.69297 20.5467 2.46534 20.9414C2.23771 21.3361 2.09007 21.7718 2.03086 22.2236C1.97164 22.6754 2.00202 23.1344 2.12025 23.5744L3.0175 26.9252C3.25873 27.8243 3.67844 28.6657 4.25164 29.3992C4.82484 30.1327 5.53979 30.7433 6.35392 31.1947C7.16805 31.6461 8.0647 31.9291 8.99047 32.0267C9.91624 32.1243 10.8522 32.0346 11.7426 31.763C11.1241 31.1631 10.5925 30.4797 10.1631 29.7326C9.07375 29.8378 7.98238 29.5532 7.08305 28.9295C6.18372 28.3058 5.53469 27.3834 5.25137 26.3263L4.35181 22.9732C4.27274 22.6769 4.31456 22.3614 4.46808 22.096C4.62159 21.8306 4.87423 21.6371 5.17044 21.5579L8.9375 20.5497V19.3472ZM24.8614 31.83L24.6301 31.7653C25.2476 31.164 25.7817 30.4819 26.2119 29.7326C27.3012 29.8378 28.3926 29.5532 29.292 28.9295C30.1913 28.3058 30.8403 27.3834 31.1236 26.3263L32.0209 22.9732C32.1 22.6773 32.0585 22.362 31.9055 22.0967C31.7524 21.8313 31.5003 21.6376 31.2046 21.5579L27.4375 20.5497V19.3472C27.436 18.9248 27.3928 18.5162 27.308 18.1215L31.8012 19.324C32.2415 19.4418 32.6542 19.6453 33.0159 19.9227C33.3775 20.2001 33.6809 20.546 33.9088 20.9408C34.1367 21.3355 34.2845 21.7713 34.3439 22.2232C34.4032 22.6751 34.3729 23.1342 34.2547 23.5744L33.3575 26.9252C32.8806 28.7018 31.7177 30.2162 30.1245 31.1356C28.5313 32.0549 26.6381 32.3062 24.8614 31.83ZM4.3125 11.2534C4.3125 10.6401 4.55614 10.0519 4.98982 9.61823C5.42349 9.18456 6.01169 8.94092 6.625 8.94092C7.23831 8.94092 7.82651 9.18456 8.26018 9.61823C8.69386 10.0519 8.9375 10.6401 8.9375 11.2534C8.9375 11.8667 8.69386 12.4549 8.26018 12.8886C7.82651 13.3223 7.23831 13.5659 6.625 13.5659C6.01169 13.5659 5.42349 13.3223 4.98982 12.8886C4.55614 12.4549 4.3125 11.8667 4.3125 11.2534ZM6.625 6.62842C5.39837 6.62842 4.22199 7.11569 3.35463 7.98305C2.48728 8.8504 2 10.0268 2 11.2534C2 12.48 2.48728 13.6564 3.35463 14.5238C4.22199 15.3911 5.39837 15.8784 6.625 15.8784C7.85163 15.8784 9.02801 15.3911 9.89537 14.5238C10.7627 13.6564 11.25 12.48 11.25 11.2534C11.25 10.0268 10.7627 8.8504 9.89537 7.98305C9.02801 7.11569 7.85163 6.62842 6.625 6.62842ZM29.75 8.94092C29.1367 8.94092 28.5485 9.18456 28.1148 9.61823C27.6811 10.0519 27.4375 10.6401 27.4375 11.2534C27.4375 11.8667 27.6811 12.4549 28.1148 12.8886C28.5485 13.3223 29.1367 13.5659 29.75 13.5659C30.3633 13.5659 30.9515 13.3223 31.3852 12.8886C31.8189 12.4549 32.0625 11.8667 32.0625 11.2534C32.0625 10.6401 31.8189 10.0519 31.3852 9.61823C30.9515 9.18456 30.3633 8.94092 29.75 8.94092ZM25.125 11.2534C25.125 10.0268 25.6123 8.8504 26.4796 7.98305C27.347 7.11569 28.5234 6.62842 29.75 6.62842C30.9766 6.62842 32.153 7.11569 33.0204 7.98305C33.8877 8.8504 34.375 10.0268 34.375 11.2534C34.375 12.48 33.8877 13.6564 33.0204 14.5238C32.153 15.3911 30.9766 15.8784 29.75 15.8784C28.5234 15.8784 27.347 15.3911 26.4796 14.5238C25.6123 13.6564 25.125 12.48 25.125 11.2534ZM14.7188 15.8784C13.7988 15.8784 12.9165 16.2439 12.266 16.8944C11.6155 17.5449 11.25 18.4272 11.25 19.3472V25.1284C11.25 26.9684 11.9809 28.7329 13.2819 30.034C14.583 31.335 16.3476 32.0659 18.1875 32.0659C20.0274 32.0659 21.792 31.335 23.0931 30.034C24.3941 28.7329 25.125 26.9684 25.125 25.1284V19.3472C25.125 18.4272 24.7595 17.5449 24.109 16.8944C23.4585 16.2439 22.5762 15.8784 21.6562 15.8784H14.7188ZM13.5625 19.3472C13.5625 19.0405 13.6843 18.7464 13.9012 18.5296C14.118 18.3127 14.4121 18.1909 14.7188 18.1909H21.6562C21.9629 18.1909 22.257 18.3127 22.4738 18.5296C22.6907 18.7464 22.8125 19.0405 22.8125 19.3472V25.1284C22.8125 26.355 22.3252 27.5314 21.4579 28.3988C20.5905 29.2661 19.4141 29.7534 18.1875 29.7534C16.9609 29.7534 15.7845 29.2661 14.9171 28.3988C14.0498 27.5314 13.5625 26.355 13.5625 25.1284V19.3472Z" fill="#AAAAAA"/>
</svg>
