<svg width="35" height="35" viewBox="0 0 35 35" fill="none" xmlns="http://www.w3.org/2000/svg">
<path d="M30.625 27.7117V17.8927C30.625 17.1015 30.464 16.3185 30.1519 15.5915C29.8398 14.8644 29.383 14.2085 28.8094 13.6635L19.5096 4.83041C18.9675 4.31545 18.2484 4.02832 17.5007 4.02832C16.7531 4.02832 16.0339 4.31545 15.4919 4.83041L6.19062 13.6635C5.61699 14.2085 5.16022 14.8644 4.84809 15.5915C4.53596 16.3185 4.375 17.1015 4.375 17.8927V27.7117C4.375 28.4852 4.68229 29.2271 5.22927 29.7741C5.77625 30.321 6.51812 30.6283 7.29167 30.6283H27.7083C28.4819 30.6283 29.2237 30.321 29.7707 29.7741C30.3177 29.2271 30.625 28.4852 30.625 27.7117Z" stroke="#AAAAAA" stroke-width="2" stroke-linecap="round" stroke-linejoin="round"/>
</svg>
